<svg width="57" height="25" viewBox="0 0 57 25" fill="none" xmlns="http://www.w3.org/2000/svg">
<path d="M53.6945 4.10307C53.4485 2.97194 52.8227 1.95916 51.921 1.23323C51.0193 0.507309 49.8962 0.112018 48.7387 0.113133H7.59024C6.43254 0.111613 5.30929 0.50676 4.40753 1.23275C3.50579 1.95874 2.87998 2.97175 2.63435 4.10307L0 24.1131H1.92637L4.52669 4.44663C4.69082 3.75796 5.08261 3.14485 5.6386 2.70659C6.19458 2.26832 6.88224 2.03057 7.59024 2.03181H48.7387C49.4458 2.02988 50.1327 2.26659 50.6885 2.70364C51.2443 3.14069 51.6363 3.75249 51.8011 4.44004L54.4048 24.1131H56.3355L53.6945 4.10307Z" fill="white"/>
</svg>
