<svg width="41" height="25" viewBox="0 0 41 25" fill="none" xmlns="http://www.w3.org/2000/svg">
<path d="M37.747 4.10306C37.5002 2.97176 36.8724 1.95883 35.9678 1.23289C35.0632 0.50694 33.9366 0.111767 32.7755 0.113133H7.61257C6.45149 0.111613 5.32494 0.50676 4.42053 1.23275C3.51613 1.95874 2.88847 2.97175 2.64211 4.10306L0 24.1131H1.93645L4.54003 4.44663C4.70593 3.75918 5.09943 3.14757 5.65694 2.71059C6.21448 2.27361 6.90345 2.03681 7.61257 2.0384H32.7755C33.4847 2.03622 34.174 2.27281 34.7317 2.70988C35.2893 3.14695 35.6826 3.7589 35.848 4.44663L38.4538 24.1131H40.3902L37.747 4.10306Z" fill="white"/>
</svg>
