<svg width="69" height="41" viewBox="0 0 69 41" fill="none" xmlns="http://www.w3.org/2000/svg">
<path d="M64.4845 6.81614C64.0629 4.88349 62.9903 3.15307 61.445 1.91292C59.8997 0.672761 57.9751 -0.00232582 55.9914 7.46198e-06H13.0048C11.0213 -0.00258894 9.09677 0.672454 7.55174 1.91269C6.00672 3.15292 4.93447 4.88348 4.5136 6.81614L0 41H3.30811L7.75588 7.40307C8.03929 6.22867 8.71152 5.18383 9.66394 4.43733C10.6164 3.69083 11.7934 3.28629 13.0048 3.28901H55.9914C57.2031 3.28528 58.3806 3.68946 59.3333 4.43612C60.2859 5.18278 60.9578 6.22819 61.2403 7.40307L65.6919 41H69L64.4845 6.81614Z" fill="#434343"/>
</svg>
