<svg width="94" height="40" viewBox="0 0 94 40" fill="none" xmlns="http://www.w3.org/2000/svg">
<path d="M89.4909 6.6499C89.0809 4.76469 88.0378 3.07672 86.535 1.86684C85.0322 0.656968 83.1604 -0.00185087 81.2312 7.27998e-06H12.6504C10.7209 -0.0025258 8.84881 0.656053 7.34589 1.86604C5.84298 3.07602 4.79997 4.76437 4.39058 6.6499L0 40H3.21061L7.54448 7.2225C7.81803 6.07472 8.47101 5.05287 9.39767 4.32243C10.3243 3.59199 11.4704 3.19573 12.6504 3.19781H81.2312C82.4096 3.19458 83.5545 3.5891 84.4808 4.31752C85.4071 5.04593 86.0605 6.0656 86.3352 7.21152L90.6746 40H93.8925L89.4909 6.6499Z" fill="white"/>
</svg>
