<svg width="85" height="60" viewBox="0 0 85 60" fill="none" xmlns="http://www.w3.org/2000/svg">
<path fill-rule="evenodd" clip-rule="evenodd" d="M11.9499 0.286422C9.35739 0.716467 7.24259 2.01962 6.15937 3.8547C5.12716 5.60341 5.016 6.7245 4.99998 15.5591C4.98957 21.3179 4.91214 23.9292 4.73687 24.4258C4.33702 25.5583 3.61265 25.9447 1.68081 26.0557L0 26.1524L0.0584902 28.4502L0.117189 30.7482L1.81361 30.8515C3.11538 30.9308 3.61827 31.0509 3.97588 31.3681C4.97541 32.2551 5.00872 32.5735 5.00872 41.2707C5.00872 50.0312 5.08324 50.8485 6.05738 52.7567C7.45698 55.499 9.89837 56.7608 14.3234 57.0293C16.0709 57.1353 16.4607 57.1064 16.4778 56.8693C16.4892 56.71 16.5596 55.6801 16.6339 54.5802L16.7692 52.5807L16.1708 52.4621C15.8417 52.3967 15.3373 52.3434 15.0501 52.3434C13.3637 52.3434 11.6818 51.1589 11.2266 49.6503C11.0463 49.0527 10.6679 48.9297 10.6679 48.9297C10.6679 48.9297 10.3096 49.1527 10.6613 48.7319C11.0131 48.3112 10.8153 32.3346 10.4489 31.2195C10.1074 30.1794 9.34719 29.3276 8.30311 28.8147C7.44637 28.394 7.44179 28.3859 7.95092 28.1937C8.83452 27.8602 9.84092 26.8751 10.2961 25.8986C10.7116 25.0071 10.7376 24.5424 10.8369 16.2824C10.9516 6.72553 10.9248 6.91855 12.2929 5.77575C13.0877 5.11178 14.1292 4.81585 15.6764 4.8144L16.8733 4.81316V2.43665V0.0601361L14.9479 0.0843146C13.8888 0.0975404 12.5398 0.188468 11.9499 0.286422ZM67.0375 2.37941V4.75881L68.5466 4.85656C70.9284 5.01114 72.0864 5.77617 72.7296 7.62034L72.9741 8.32172L75.4694 6.6718C76.8418 5.76439 77.9978 4.9229 78.0384 4.80221C78.1746 4.39676 76.6386 2.37114 75.7188 1.74271C74.192 0.699935 72.4508 0.236618 69.5873 0.111386L67.0375 0V2.37941ZM17.0814 25.8122V44.5381L17.5498 44.2358C17.8073 44.0694 20.2878 42.4654 23.062 40.6714L28.1059 37.4096L28.1617 32.5291L28.2175 27.6484L30.1722 30.8515C31.2473 32.6132 32.2308 34.1598 32.3578 34.2883C32.5285 34.4613 33.6308 33.8413 36.5945 31.9052L40.6003 29.2882L33.8061 18.1874L27.0117 7.08635H22.0466H17.0814V25.8122ZM56.5438 7.55132C55.5209 9.11651 45.6482 25.8021 45.709 25.8631C45.7497 25.9042 50.4949 22.879 56.254 19.1404L66.7253 12.3434L66.7835 9.71477L66.8418 7.08635H61.8448C56.8914 7.08635 56.845 7.09048 56.5438 7.55132ZM77.8613 10.2918C75.7525 11.5027 75.2521 11.8791 75.2213 12.2777C75.2005 12.548 75.0202 16.134 74.8208 20.2467C74.3975 28.9804 74.448 29.5293 75.7989 30.8705C76.2465 31.3148 76.7529 31.6781 76.9246 31.6781C77.4698 31.6781 77.2616 32.0753 76.5603 32.3731C75.1818 32.9587 74.248 34.4163 74.0159 36.3447C73.9487 36.9037 73.7145 40.6295 73.4955 44.6241C73.0701 52.3883 72.9831 52.8921 71.8659 54.0737C71.0585 54.9278 70.166 55.2366 68.5051 55.2366C66.8043 55.2366 66.8955 55.0921 66.7725 57.9801C66.6792 60.1698 66.5081 60.0721 70.2076 59.9437C74.8312 59.7834 76.9365 58.4767 78.2547 54.95C78.7574 53.6053 78.8962 52.114 79.4187 42.465C79.7575 36.2048 79.8524 35.737 80.9253 35.0391C81.358 34.7576 81.8463 34.6876 83.1065 34.7269L84.7302 34.7773L84.7315 34.1061C84.7321 33.7368 84.7929 32.6673 84.8664 31.7298L85 30.0249L84.1886 30.0158C82.5751 29.998 81.5397 29.6769 80.9373 29.0077C80.3978 28.408 80.3591 28.2433 80.3591 26.5423C80.3591 25.5399 80.5083 22.2169 80.6909 19.1578C81.0254 13.5511 81.0106 9.28803 80.6555 8.96979C80.5477 8.87328 79.3206 9.45356 77.8613 10.2918ZM66.2049 16.9778C63.9498 18.2863 56.543 22.5461 49.7383 26.4479L46.6972 28.1916L44.9509 30.7546C43.9903 32.1641 43.1535 33.3206 43.0915 33.3243C43.0294 33.3282 42.7226 32.8128 42.4098 32.1792C42.0967 31.5456 41.7685 31.0575 41.6804 31.0943C40.9321 31.4078 33.5378 35.7463 33.5324 35.875C33.5284 35.967 34.8566 38.4968 36.4839 41.497L39.4426 46.9518L40.4908 47.0603C41.0674 47.1201 42.288 47.194 43.2032 47.2246L44.8676 47.2804L50.747 38.6016C53.9806 33.8283 56.7097 29.8951 56.8117 29.8614C56.9137 29.8277 56.9605 30.1993 56.9155 30.6874C56.8708 31.1755 56.6477 35.6665 56.4195 40.6675C56.1916 45.6685 55.9508 50.2806 55.8846 50.9165L55.7641 52.0729L58.5387 52.2126C60.0647 52.2893 62.6014 52.4106 64.1754 52.4819L67.0375 52.6115V51.3711C67.0375 50.0285 68.6123 18.9745 68.7882 16.8507C68.8471 16.1405 68.8284 15.5657 68.7468 15.574C68.6654 15.5823 67.5214 16.214 66.2049 16.9778ZM26.9686 39.5059C26.0527 40.0436 23.6173 41.4435 21.5567 42.6169C19.496 43.7905 17.7019 44.8547 17.57 44.9822C17.4255 45.1217 17.3012 46.1597 17.2577 47.5904L17.1855 49.9669L19.5792 50.0919C20.8958 50.1606 23.3848 50.2899 25.1104 50.3792L28.2479 50.5414L28.5058 45.0878C28.6475 42.0885 28.8122 39.3784 28.8713 39.066C28.9306 38.7535 28.9014 38.5047 28.8063 38.5132C28.7114 38.5216 27.8844 38.9684 26.9686 39.5059Z" fill="white"/>
</svg>
