<svg width="90" height="90" viewBox="0 0 90 90" fill="none" xmlns="http://www.w3.org/2000/svg">
<g clip-path="url(#clip0_87_162)">
<path d="M2.24894 89.7645V80.4142H3.72002C4.34805 80.3919 4.97642 80.4479 5.59061 80.5809C6.11309 80.7054 6.58159 80.9948 6.92674 81.4064C7.25645 81.8065 7.43197 82.3115 7.42151 82.8298C7.4269 83.1662 7.34967 83.4987 7.19662 83.7982C7.01701 84.1224 6.76648 84.4019 6.46372 84.6158C6.96274 84.8277 7.39386 85.1727 7.7099 85.6132C7.97448 86.0398 8.10703 86.535 8.0909 87.0367C8.09585 87.5448 7.9544 88.0435 7.68344 88.4733C7.4282 88.8888 7.06153 89.2243 6.62512 89.4417C6.06535 89.6821 5.45835 89.7925 4.84978 89.7645H2.24894ZM4.02958 82.1128V84.0813H4.41851C4.76169 84.1113 5.10426 84.0174 5.38423 83.8167C5.49214 83.7245 5.57756 83.6089 5.63396 83.4787C5.69037 83.3485 5.71626 83.2071 5.70967 83.0653C5.71528 82.9343 5.69131 82.8037 5.63956 82.6833C5.5878 82.5628 5.50957 82.4555 5.41069 82.3695C5.14782 82.175 4.824 82.0811 4.49788 82.1049L4.02958 82.1128ZM4.02958 85.6714V88.0527H4.47672C5.21225 88.0527 5.71231 87.9601 5.96896 87.7881C6.09601 87.6951 6.19786 87.5718 6.26531 87.4295C6.33276 87.2873 6.36367 87.1304 6.35525 86.9732C6.3623 86.7897 6.32483 86.6072 6.24604 86.4413C6.16726 86.2755 6.04949 86.1311 5.90281 86.0207C5.60119 85.7878 5.10907 85.6714 4.39734 85.6714H4.02958Z" fill="white"/>
<path d="M14.544 80.1787C15.181 80.1714 15.8128 80.2952 16.3999 80.5423C16.9871 80.7895 17.5171 81.1547 17.9571 81.6154C18.4203 82.0718 18.7857 82.6178 19.0309 83.2201C19.2761 83.8224 19.396 84.4683 19.3832 85.1185C19.3966 85.7614 19.2785 86.4002 19.0359 86.9958C18.7934 87.5914 18.4317 88.1311 17.973 88.5818C17.5313 89.0396 17.0001 89.4016 16.4125 89.6451C15.8248 89.8886 15.1933 90.0085 14.5573 89.9973C13.9046 90.0149 13.2556 89.8944 12.6528 89.6436C12.0501 89.3928 11.5071 89.0175 11.0595 88.5421C10.38 87.8532 9.91901 86.9788 9.73448 86.0289C9.54995 85.0789 9.65005 84.0956 10.0222 83.2024C10.3944 82.3091 11.0221 81.5456 11.8265 81.0077C12.631 80.4698 13.5763 80.1814 14.544 80.1787ZM14.5255 81.9223C14.1192 81.9131 13.7155 81.9883 13.3397 82.1431C12.964 82.2979 12.6245 82.5291 12.3427 82.8219C12.0487 83.1257 11.8188 83.4856 11.667 83.8802C11.5152 84.2748 11.4444 84.6959 11.459 85.1185C11.4394 85.586 11.53 86.0516 11.7235 86.4776C11.917 86.9037 12.208 87.2782 12.5729 87.5711C13.1301 88.0334 13.8333 88.2828 14.5573 88.2749C14.9603 88.2804 15.3601 88.2021 15.7313 88.0449C16.1025 87.8878 16.437 87.6553 16.7136 87.3621C17.2867 86.7498 17.6055 85.9425 17.6055 85.1039C17.6055 84.2653 17.2867 83.458 16.7136 82.8457C16.4336 82.5475 16.0942 82.3113 15.7174 82.1523C15.3405 81.9932 14.9345 81.9149 14.5255 81.9223Z" fill="white"/>
<path d="M20.685 80.4142H22.4339L23.7859 86.3832L25.4554 80.4142H26.9344L28.6277 86.3832L29.9506 80.4142H31.7048L29.5881 89.7645H27.8816L26.1592 83.7215L24.4949 89.7645H22.8016L20.685 80.4142Z" fill="white"/>
<path d="M33.8849 80.4142H35.6656V88.0659H38.2532V89.7645H33.8849V80.4142Z" fill="white"/>
<path d="M50.6224 81.6869L49.2994 82.8484C48.8373 82.2045 48.3664 81.8826 47.8866 81.8826C47.6789 81.8745 47.4752 81.9411 47.3124 82.0705C47.2455 82.1194 47.1907 82.183 47.1522 82.2564C47.1136 82.3297 47.0924 82.411 47.0902 82.4938C47.092 82.6556 47.1479 82.812 47.2489 82.9383C47.6551 83.3687 48.091 83.7701 48.5533 84.1395C49.2342 84.7075 49.6461 85.0656 49.7889 85.2137C50.1041 85.5143 50.3639 85.8681 50.5562 86.2588C50.7098 86.6015 50.7874 86.9734 50.7837 87.3489C50.7937 87.7037 50.7281 88.0566 50.5912 88.3841C50.4544 88.7117 50.2495 89.0063 49.99 89.2486C49.4245 89.7621 48.6788 90.0313 47.9157 89.9974C47.3006 90.0125 46.6951 89.8429 46.1774 89.5105C45.6263 89.1168 45.1877 88.586 44.9048 87.9707L46.4023 87.0684C46.8521 87.8939 47.3706 88.3093 47.9554 88.3093C48.2359 88.3194 48.5102 88.2251 48.7253 88.0447C48.8201 87.9724 48.8974 87.8797 48.9514 87.7735C49.0055 87.6672 49.0349 87.5501 49.0375 87.4309C49.0295 87.1986 48.947 86.975 48.802 86.7933C48.4906 86.4349 48.143 86.1095 47.7649 85.8223C46.7454 84.9915 46.0874 84.3503 45.7911 83.8988C45.5115 83.5033 45.3559 83.0336 45.344 82.5494C45.3419 82.2342 45.4072 81.9223 45.5354 81.6344C45.6637 81.3465 45.8518 81.0892 46.0874 80.8799C46.5812 80.4159 47.2384 80.1658 47.9157 80.184C48.3764 80.1844 48.8303 80.296 49.2386 80.5095C49.7708 80.8099 50.2406 81.2096 50.6224 81.6869Z" fill="white"/>
<path d="M52.3448 80.4142H57.5094V82.1737H55.8081V89.7698H54.0037V82.1737H52.3448V80.4142Z" fill="white"/>
<path d="M62.3645 80.4142H64.1821L67.7752 89.7645H65.9231L65.1929 87.8384H61.3696L60.6103 89.7645H58.7582L62.3645 80.4142ZM63.2799 82.8933L62.0258 86.1027H64.5261L63.2799 82.8933Z" fill="white"/>
<path d="M69.9289 80.4142H71.6354L75.6359 86.5657V80.4142H77.4112V89.7645H75.6994L71.7042 83.6315V89.7645H69.9262L69.9289 80.4142Z" fill="white"/>
<path d="M80.3375 80.4142H82.4541C83.8123 80.4142 84.8221 80.5827 85.4836 80.9196C86.178 81.2932 86.7454 81.8652 87.1134 82.5626C87.479 83.2741 87.6924 84.0539 87.7402 84.8524C87.7881 85.6509 87.6692 86.4507 87.3912 87.2007C87.1771 87.7692 86.8411 88.2839 86.407 88.7088C86.02 89.0861 85.5509 89.3687 85.0364 89.5343C84.547 89.6878 83.695 89.7645 82.4859 89.7645H80.3454L80.3375 80.4142ZM82.1049 82.1313V88.0289H82.9304C83.7453 88.0289 84.3353 87.9354 84.7004 87.7484C85.0918 87.5368 85.4066 87.2072 85.6 86.8065C85.8479 86.3009 85.9678 85.7421 85.9492 85.1793C85.9492 84.1845 85.6723 83.4146 85.1185 82.8695C84.6158 82.3774 83.8141 82.1313 82.7081 82.1313H82.1049Z" fill="white"/>
<path d="M10.5568 46.9367L15.695 62.5153L20.8755 46.9367H24.024L15.695 71.8074L12.0305 60.7611L8.32638 71.7968L0 46.9261H3.14587L8.32638 62.5153L10.443 56.0992L7.37388 46.9367H10.5568Z" fill="white"/>
<path d="M36.335 46.8177C37.9941 46.8117 39.6371 47.1439 41.1636 47.794C42.6546 48.4212 44.0083 49.3344 45.1482 50.4821C46.2833 51.6324 47.1948 52.9835 47.8363 54.4667C48.5029 55.9861 48.8436 57.6283 48.8364 59.2874C48.845 60.9336 48.5258 62.5651 47.8976 64.0868C47.2694 65.6086 46.3447 66.99 45.1773 68.1508C44.0344 69.2828 42.6878 70.1886 41.2085 70.8205C39.6692 71.4649 38.017 71.7968 36.3482 71.7968C34.6794 71.7968 33.0272 71.4649 31.4878 70.8205C29.998 70.1922 28.6412 69.2862 27.49 68.1508C26.3208 66.9911 25.3946 65.6099 24.7654 64.0881C24.1362 62.5662 23.8167 60.9342 23.8256 59.2874C23.8133 57.6176 24.1447 55.9632 24.7992 54.427C25.4302 52.9421 26.3441 51.5941 27.49 50.4583C28.6381 49.326 29.9901 48.4211 31.4746 47.7913C33.0108 47.1368 34.6652 46.8054 36.335 46.8177ZM36.335 49.9662C35.0844 49.9563 33.8455 50.2068 32.697 50.7017C31.5928 51.1766 30.5863 51.8521 29.7284 52.694C28.87 53.5422 28.1867 54.5508 27.7175 55.6626C27.2304 56.8127 26.9794 58.049 26.9794 59.298C26.9794 60.547 27.2304 61.7832 27.7175 62.9333C28.6774 65.1703 30.46 66.9529 32.697 67.9127C33.8503 68.3999 35.0896 68.6509 36.3416 68.6509C37.5936 68.6509 38.8329 68.3999 39.9862 67.9127C42.2231 66.9529 44.0058 65.1703 44.9656 62.9333C45.4622 61.7824 45.7136 60.5408 45.7038 59.2874C45.7109 58.0471 45.4594 56.8189 44.9656 55.6811C44.0058 53.4378 42.2146 51.6532 39.9677 50.7017C38.8204 50.2089 37.5836 49.9585 36.335 49.9662Z" fill="white"/>
<path d="M63.5445 46.8177C65.208 46.8106 66.8555 47.1428 68.3864 47.794C69.8765 48.4213 71.2293 49.3345 72.3683 50.4821C73.5034 51.6329 74.4157 52.9839 75.0591 54.4667C75.7239 55.9864 76.0628 57.6286 76.0539 59.2874C76.0605 60.9343 75.7394 62.5661 75.1094 64.0878C74.4794 65.6094 73.553 66.9906 72.3842 68.1509C71.2406 69.282 69.8942 70.1877 68.4155 70.8205C66.8761 71.4649 65.2239 71.7968 63.5551 71.7968C61.8863 71.7968 60.2341 71.4649 58.6947 70.8205C57.207 70.1912 55.8522 69.2853 54.7022 68.1509C53.5341 66.993 52.6069 65.6153 51.9742 64.0972C51.3414 62.579 51.0156 60.9506 51.0156 59.3059C51.0156 57.6612 51.3414 56.0328 51.9742 54.5147C52.6069 52.9965 53.5341 51.6188 54.7022 50.461C55.8498 49.3292 57.2008 48.4244 58.6841 47.794C60.2201 47.1385 61.8746 46.8062 63.5445 46.8177ZM63.5445 49.9662C62.2913 49.9556 61.0496 50.2061 59.8986 50.7017C58.7952 51.1767 57.7896 51.8522 56.9326 52.694C56.0743 53.5423 55.3911 54.5509 54.9218 55.6626C54.4347 56.8127 54.1837 58.049 54.1837 59.298C54.1837 60.547 54.4347 61.7832 54.9218 62.9333C55.8846 65.1683 57.6663 66.95 59.9012 67.9127C61.055 68.3999 62.2947 68.6508 63.5472 68.6508C64.7996 68.6508 66.0393 68.3999 67.1931 67.9127C69.43 66.9529 71.2127 65.1703 72.1725 62.9333C72.67 61.7827 72.9223 60.541 72.9133 59.2874C72.9204 58.0471 72.669 56.8189 72.1751 55.6811C71.2153 53.4378 69.4241 51.6532 67.1772 50.7017C66.0298 50.2092 64.7931 49.9588 63.5445 49.9662Z" fill="white"/>
<path d="M90 46.9367V49.9662H81.5916V61.6792H88.4046V64.7113H81.5916V71.683H78.4457V46.9367H90Z" fill="white"/>
<path d="M29.1754 6.35524C29.9982 6.0642 29.4109 8.47189 29.9374 11.1547C30.321 13.1153 31.7577 14.5149 32.5118 15.1235C33.5701 14.6287 37.0626 13.3508 42.7855 14.4805C42.7855 14.4805 51.3526 14.5202 54.0831 13.2635C54.7631 12.9513 57.684 7.52998 57.6285 7.81573C57.6285 7.81573 58.573 5.41333 59.425 3.63799C59.3403 3.43162 59.2609 3.25699 59.1948 3.12999C58.6312 2.0505 60.695 1.33084 60.8537 1.21707C61.0125 1.1033 61.5416 0.973656 62.4095 0.862532C62.9122 0.799032 63.698 0.264578 64.0472 0.0396836C64.3515 -0.153461 64.5076 0.246057 64.5975 0.59795C64.5975 0.59795 64.5975 0.624408 64.5975 0.634992C65.3306 0.648095 66.0571 0.774838 66.7512 1.0107C69.5849 1.97642 68.6324 2.27275 68.8494 2.79927C69.0663 3.32578 70.847 4.56138 72.0455 4.99794C73.2441 5.4345 73.6012 6.13035 72.9451 7.25217C72.2889 8.374 71.2729 9.82655 68.7753 9.22066C67.4973 8.9111 66.4258 9.60695 65.6003 10.4033C65.2548 10.7306 64.9354 11.0845 64.6452 11.4617C63.9943 12.3242 64.0155 16.9888 63.8514 18.7244C63.645 20.8411 62.8275 23.0979 60.4463 24.614C60.0933 25.605 59.8536 26.6329 59.7319 27.6779C59.4673 30.3369 59.7716 33.3028 60.2002 33.5383C60.6288 33.7738 62.3168 34.0992 62.256 35.229C62.211 35.9989 61.8221 36.2582 60.9199 36.3429C60.8061 37.3642 59.9806 37.4012 57.9777 37.4012C56.2976 37.4012 55.7764 30.5724 55.6203 29.0113C55.5753 28.5668 55.4748 27.6884 55.4298 26.6301C52.1225 27.3074 48.7306 26.5984 43.05 24.4976C41.7902 24.1812 40.501 23.9959 39.203 23.9446C38.6209 25.7385 35.7635 28.6806 33.1468 29.7389C32.443 30.022 33.787 34.9009 34.0807 34.9591C34.3744 35.0173 35.9831 35.1629 35.6894 36.245C35.5624 36.7107 34.7898 36.7742 33.9749 36.7742C33.9749 36.8138 33.959 36.8562 33.9484 36.9012C33.7632 37.5944 32.1361 37.4303 31.0724 37.4303C30.2787 37.4303 30.0538 36.9012 29.895 36.2979C29.5405 34.938 28.9135 32.4535 28.6383 30.9137C28.5902 30.6388 28.6137 30.3563 28.7063 30.0931C28.799 29.8299 28.9578 29.595 29.1674 29.4109C29.8792 28.7838 30.8872 27.7202 30.7047 26.8841C30.4401 25.6168 28.9478 21.2512 28.9955 20.005C28.9346 18.78 29.5035 17.9995 30.7232 16.7559C30.3898 15.6685 30.0115 15.6447 28.1911 12.5226C26.0824 8.88464 28.3578 6.64893 29.1754 6.35524Z" fill="white"/>
</g>
<defs>
<clipPath id="clip0_87_162">
<rect width="90" height="89.9973" fill="white"/>
</clipPath>
</defs>
</svg>
