<svg width="80" height="80" viewBox="0 0 80 80" fill="none" xmlns="http://www.w3.org/2000/svg">
<g clip-path="url(#clip0_87_241)">
<path d="M1.99906 79.7907V71.4793H3.30668C3.86493 71.4595 4.42348 71.5093 4.96942 71.6275C5.43385 71.7382 5.8503 71.9955 6.1571 72.3613C6.45017 72.7169 6.60619 73.1658 6.59689 73.6266C6.60168 73.9255 6.53304 74.2211 6.39699 74.4873C6.23734 74.7756 6.01465 75.024 5.74553 75.2141C6.1891 75.4024 6.57232 75.7091 6.85324 76.1007C7.08842 76.4798 7.20625 76.9201 7.19191 77.366C7.19631 77.8176 7.07057 78.261 6.82973 78.643C6.60284 79.0123 6.27692 79.3105 5.88899 79.5038C5.39142 79.7175 4.85186 79.8156 4.31091 79.7907H1.99906ZM3.58184 72.9892V74.739H3.92756C4.23261 74.7656 4.53712 74.6822 4.78598 74.5038C4.8819 74.4219 4.95783 74.3191 5.00796 74.2033C5.0581 74.0876 5.08112 73.9619 5.07526 73.8359C5.08024 73.7194 5.05894 73.6034 5.01293 73.4963C4.96693 73.3892 4.8974 73.2939 4.8095 73.2173C4.57584 73.0445 4.28799 72.9611 3.99812 72.9822L3.58184 72.9892ZM3.58184 76.1524V78.2691H3.9793C4.63311 78.2691 5.07761 78.1868 5.30574 78.0339C5.41867 77.9512 5.50921 77.8417 5.56916 77.7152C5.62911 77.5887 5.65659 77.4493 5.6491 77.3095C5.65537 77.1464 5.62207 76.9842 5.55204 76.8368C5.482 76.6894 5.37733 76.5611 5.24694 76.4629C4.97883 76.2559 4.54139 76.1524 3.90875 76.1524H3.58184Z" fill="#BFA78D"/>
<path d="M12.928 71.27C13.4943 71.2635 14.0558 71.3736 14.5777 71.5932C15.0996 71.8129 15.5708 72.1376 15.9619 72.5471C16.3736 72.9528 16.6984 73.4381 16.9163 73.9735C17.1343 74.5089 17.2409 75.083 17.2295 75.6609C17.2415 76.2324 17.1364 76.8003 16.9208 77.3297C16.7053 77.8591 16.3837 78.3389 15.976 78.7395C15.5834 79.1464 15.1112 79.4681 14.5889 79.6846C14.0665 79.9011 13.5052 80.0077 12.9398 79.9977C12.3597 80.0134 11.7828 79.9062 11.247 79.6833C10.7112 79.4604 10.2285 79.1267 9.83067 78.7042C9.22664 78.0918 8.8169 77.3146 8.65287 76.4702C8.48884 75.6258 8.57782 74.7518 8.90865 73.9577C9.23947 73.1637 9.79741 72.485 10.5125 72.0069C11.2275 71.5288 12.0678 71.2724 12.928 71.27ZM12.9116 72.8199C12.5504 72.8117 12.1915 72.8785 11.8576 73.0162C11.5236 73.1538 11.2218 73.3593 10.9713 73.6195C10.7099 73.8896 10.5056 74.2095 10.3707 74.5602C10.2357 74.911 10.1728 75.2853 10.1858 75.6609C10.1684 76.0765 10.2489 76.4903 10.4209 76.8691C10.5929 77.2478 10.8515 77.5807 11.1759 77.8411C11.6712 78.252 12.2963 78.4737 12.9398 78.4667C13.2981 78.4715 13.6534 78.4019 13.9834 78.2622C14.3133 78.1226 14.6107 77.9159 14.8565 77.6553C15.3659 77.111 15.6494 76.3935 15.6494 75.648C15.6494 74.9025 15.3659 74.185 14.8565 73.6407C14.6076 73.3757 14.306 73.1657 13.971 73.0243C13.636 72.883 13.2751 72.8133 12.9116 72.8199Z" fill="#BFA78D"/>
<path d="M18.3866 71.4792H19.9412L21.143 76.785L22.627 71.4792H23.9417L25.4469 76.785L26.6228 71.4792H28.182L26.3006 79.7906H24.7836L23.2526 74.419L21.7733 79.7906H20.2681L18.3866 71.4792Z" fill="#BFA78D"/>
<path d="M30.1199 71.4792H31.7027V78.2807H34.0028V79.7906H30.1199V71.4792Z" fill="#BFA78D"/>
<path d="M44.9976 72.6106L43.8217 73.643C43.4109 73.0708 42.9923 72.7846 42.5659 72.7846C42.3812 72.7774 42.2001 72.8366 42.0555 72.9516C41.996 72.9951 41.9473 73.0516 41.913 73.1168C41.8788 73.182 41.8599 73.2543 41.8579 73.3279C41.8596 73.4717 41.9093 73.6107 41.9991 73.723C42.3601 74.1056 42.7475 74.4624 43.1585 74.7907C43.7637 75.2956 44.1298 75.6139 44.2568 75.7456C44.537 76.0127 44.7679 76.3272 44.9389 76.6746C45.0754 76.9792 45.1444 77.3097 45.1411 77.6435C45.15 77.9589 45.0916 78.2726 44.97 78.5637C44.8484 78.8549 44.6662 79.1168 44.4356 79.3321C43.9329 79.7886 43.2701 80.0278 42.5917 79.9977C42.045 80.0112 41.5068 79.8604 41.0466 79.565C40.5567 79.215 40.1668 78.7432 39.9153 78.1962L41.2465 77.3942C41.6463 78.128 42.1072 78.4972 42.627 78.4972C42.8764 78.5062 43.1202 78.4224 43.3114 78.262C43.3956 78.1978 43.4644 78.1154 43.5124 78.0209C43.5604 77.9264 43.5866 77.8224 43.5889 77.7164C43.5818 77.5099 43.5084 77.3112 43.3796 77.1496C43.1027 76.831 42.7938 76.5418 42.4577 76.2865C41.5514 75.548 40.9666 74.9781 40.7032 74.5767C40.4547 74.2252 40.3164 73.8077 40.3057 73.3773C40.304 73.0972 40.362 72.8199 40.4759 72.5639C40.5899 72.308 40.7572 72.0794 40.9666 71.8933C41.4055 71.4809 41.9896 71.2586 42.5917 71.2748C43.0013 71.2751 43.4047 71.3743 43.7676 71.564C44.2407 71.8311 44.6583 72.1864 44.9976 72.6106Z" fill="#BFA78D"/>
<path d="M46.5287 71.4792H51.1195V73.0432H49.6072V79.7953H48.0033V73.0432H46.5287V71.4792Z" fill="#BFA78D"/>
<path d="M55.4351 71.4792H57.0508L60.2446 79.7906H58.5983L57.9492 78.0785H54.5508L53.8758 79.7906H52.2295L55.4351 71.4792ZM56.2488 73.6829L55.1341 76.5357H57.3565L56.2488 73.6829Z" fill="#BFA78D"/>
<path d="M62.159 71.4792H63.6759L67.2319 76.9473V71.4792H68.81V79.7906H67.2883L63.7371 74.3391V79.7906H62.1566L62.159 71.4792Z" fill="#BFA78D"/>
<path d="M71.4111 71.4792H73.2926C74.4998 71.4792 75.3975 71.629 75.9854 71.9284C76.6027 72.2605 77.1071 72.769 77.4341 73.3889C77.7591 74.0214 77.9488 74.7146 77.9913 75.4243C78.0338 76.1341 77.9282 76.845 77.6811 77.5117C77.4907 78.017 77.1921 78.4746 76.8062 78.8522C76.4622 79.1876 76.0452 79.4388 75.588 79.586C75.1529 79.7224 74.3956 79.7906 73.3208 79.7906H71.4181L71.4111 71.4792ZM72.9821 73.0056V78.2478H73.7159C74.4403 78.2478 74.9647 78.1647 75.2893 77.9985C75.6372 77.8104 75.917 77.5175 76.0889 77.1613C76.3092 76.7118 76.4158 76.2152 76.3993 75.7149C76.3993 74.8306 76.1532 74.1462 75.6609 73.6617C75.214 73.2243 74.5014 73.0056 73.5183 73.0056H72.9821Z" fill="#BFA78D"/>
<path d="M9.38382 41.7216L13.9511 55.5692L18.556 41.7216H21.3547L13.9511 63.8288L10.6938 54.0099L7.40122 63.8194L0 41.7122H2.79633L7.40122 55.5692L9.28269 49.866L6.55456 41.7216H9.38382Z" fill="#BFA78D"/>
<path d="M32.2977 41.6158C33.7725 41.6105 35.2329 41.9058 36.5898 42.4836C37.9152 43.0412 39.1184 43.8529 40.1317 44.8731C41.1407 45.8955 41.9509 47.0965 42.5212 48.4149C43.1137 49.7655 43.4165 51.2252 43.4102 52.7C43.4177 54.1633 43.1341 55.6135 42.5756 56.9662C42.0172 58.3188 41.1952 59.5468 40.1576 60.5786C39.1417 61.5848 37.9447 62.3899 36.6298 62.9516C35.2615 63.5245 33.7929 63.8195 32.3095 63.8195C30.8261 63.8195 29.3575 63.5245 27.9892 62.9516C26.6649 62.3931 25.4589 61.5878 24.4356 60.5786C23.3963 59.5477 22.5729 58.32 22.0137 56.9672C21.4544 55.6145 21.1704 54.1638 21.1783 52.7C21.1673 51.2157 21.4619 49.7451 22.0437 48.3796C22.6046 47.0597 23.417 45.8615 24.4356 44.8519C25.4561 43.8454 26.6579 43.041 27.9774 42.4812C29.3429 41.8994 30.8135 41.6048 32.2977 41.6158ZM32.2977 44.4145C31.1861 44.4057 30.0849 44.6284 29.064 45.0683C28.0825 45.4904 27.1878 46.0909 26.4252 46.8392C25.6622 47.5931 25.0549 48.4897 24.6378 49.478C24.2048 50.5003 23.9817 51.5992 23.9817 52.7094C23.9817 53.8196 24.2048 54.9185 24.6378 55.9408C25.491 57.9292 27.0756 59.5138 29.064 60.367C30.0891 60.8 31.1907 61.0231 32.3036 61.0231C33.4165 61.0231 34.5181 60.8 35.5433 60.367C37.5317 59.5138 39.1163 57.9292 39.9694 55.9408C40.4108 54.9178 40.6343 53.8141 40.6256 52.7C40.6319 51.5975 40.4084 50.5058 39.9694 49.4944C39.1162 47.5003 37.5241 45.9141 35.5268 45.0683C34.507 44.6302 33.4076 44.4076 32.2977 44.4145Z" fill="#BFA78D"/>
<path d="M56.484 41.6157C57.9627 41.6095 59.4271 41.9047 60.7879 42.4836C62.1125 43.0412 63.315 43.853 64.3274 44.873C65.3363 45.896 66.1473 47.0968 66.7192 48.4149C67.3101 49.7657 67.6114 51.2255 67.6035 52.6999C67.6093 54.1639 67.3239 55.6143 66.7639 56.9669C66.2039 58.3195 65.3804 59.5472 64.3415 60.5786C63.325 61.5841 62.1282 62.3891 60.8137 62.9516C59.4454 63.5244 57.9768 63.8194 56.4934 63.8194C55.01 63.8194 53.5414 63.5244 52.1731 62.9516C50.8506 62.3922 49.6464 61.587 48.6242 60.5786C47.5859 59.5494 46.7617 58.3247 46.1992 56.9753C45.6368 55.6258 45.3472 54.1784 45.3472 52.7164C45.3472 51.2544 45.6368 49.8069 46.1992 48.4575C46.7617 47.1081 47.5859 45.8834 48.6242 44.8542C49.6443 43.8482 50.8451 43.0439 52.1637 42.4836C53.529 41.9009 54.9996 41.6055 56.484 41.6157ZM56.484 44.4144C55.3701 44.405 54.2663 44.6276 53.2432 45.0682C52.2624 45.4904 51.3685 46.0909 50.6068 46.8392C49.8439 47.5932 49.2366 48.4897 48.8194 49.4779C48.3864 50.5002 48.1633 51.5991 48.1633 52.7093C48.1633 53.8196 48.3864 54.9185 48.8194 55.9408C49.6752 57.9274 51.2589 59.5111 53.2455 60.3669C54.2711 60.7999 55.3731 61.023 56.4864 61.023C57.5996 61.023 58.7016 60.7999 59.7272 60.3669C61.7156 59.5137 63.3002 57.9292 64.1533 55.9408C64.5955 54.9179 64.8198 53.8142 64.8119 52.6999C64.8181 51.5974 64.5947 50.5057 64.1557 49.4944C63.3025 47.5003 61.7103 45.914 59.7131 45.0682C58.6932 44.6304 57.5939 44.4078 56.484 44.4144Z" fill="#BFA78D"/>
<path d="M80 41.7214V44.4143H72.5259V54.8259H78.5818V57.5211H72.5259V63.7181H69.7295V41.7214H80Z" fill="#BFA78D"/>
<path d="M25.9337 5.64913C26.6651 5.39043 26.143 7.5306 26.611 9.91536C26.952 11.6581 28.2291 12.9022 28.8993 13.4431C29.8401 13.0033 32.9445 11.8674 38.0315 12.8716C38.0315 12.8716 45.6468 12.9069 48.0738 11.7898C48.6783 11.5123 51.2747 6.69334 51.2253 6.94734C51.2253 6.94734 52.0649 4.81188 52.8222 3.2338C52.7469 3.05035 52.6764 2.89513 52.6176 2.78224C52.1166 1.8227 53.9511 1.183 54.0922 1.08187C54.2333 0.980739 54.7037 0.865499 55.4751 0.766722C55.9219 0.710278 56.6204 0.235207 56.9309 0.0353014C57.2013 -0.136382 57.3401 0.218745 57.42 0.531538C57.42 0.531538 57.42 0.555057 57.42 0.564464C58.0716 0.576112 58.7174 0.688772 59.3344 0.898425C61.8532 1.75684 61.0066 2.02025 61.1994 2.48826C61.3923 2.95628 62.9751 4.05459 64.0404 4.44264C65.1058 4.83069 65.4233 5.44922 64.8401 6.4464C64.2568 7.44358 63.3537 8.73474 61.1336 8.19617C59.9976 7.921 59.0452 8.53953 58.3114 9.24744C58.0042 9.53836 57.7204 9.8529 57.4624 10.1882C56.8838 10.9549 56.9026 15.1012 56.7568 16.644C56.5734 18.5254 55.8467 20.5315 53.73 21.8791C53.4162 22.7601 53.2032 23.6737 53.095 24.6026C52.8598 26.9662 53.1303 29.6026 53.5113 29.8119C53.8923 30.0212 55.3928 30.3105 55.3387 31.3147C55.2987 31.9991 54.953 32.2296 54.151 32.3048C54.0499 33.2126 53.3161 33.2456 51.5357 33.2456C50.0423 33.2456 49.579 27.1755 49.4403 25.7879C49.4003 25.3928 49.3109 24.612 49.2709 23.6712C46.3311 24.2733 43.3161 23.643 38.2667 21.7757C37.1468 21.4944 36.0009 21.3297 34.8471 21.2841C34.3297 22.8787 31.7897 25.4939 29.4638 26.4346C28.8382 26.6863 30.0329 31.0231 30.294 31.0748C30.555 31.1266 31.9849 31.2559 31.7239 32.2178C31.611 32.6317 30.9243 32.6882 30.1999 32.6882C30.1999 32.7234 30.1858 32.7611 30.1764 32.8011C30.0118 33.4172 28.5654 33.2714 27.6199 33.2714C26.9144 33.2714 26.7145 32.8011 26.5734 32.2648C26.2582 31.056 25.7008 28.8476 25.4563 27.4789C25.4135 27.2345 25.4344 26.9834 25.5168 26.7494C25.5991 26.5155 25.7403 26.3067 25.9266 26.143C26.5593 25.5856 27.4553 24.6402 27.293 23.897C27.0579 22.7705 25.7314 18.89 25.7738 17.7822C25.7197 16.6933 26.2253 15.9996 27.3095 14.8942C27.0132 13.9276 26.6769 13.9064 25.0588 11.1313C23.1844 7.89748 25.207 5.91018 25.9337 5.64913Z" fill="#BFA78D"/>
</g>
<defs>
<clipPath id="clip0_87_241">
<rect width="80" height="79.9976" fill="white"/>
</clipPath>
</defs>
</svg>
