<svg width="90" height="90" viewBox="0 0 90 90" fill="none" xmlns="http://www.w3.org/2000/svg">
<g clip-path="url(#clip0_57_429)">
<path d="M2.2489 89.7645V80.4142H3.71997C4.34801 80.3919 4.97637 80.4479 5.59056 80.5809C6.11305 80.7054 6.58155 80.9948 6.9267 81.4064C7.25641 81.8065 7.43192 82.3115 7.42147 82.8298C7.42685 83.1662 7.34963 83.4987 7.19657 83.7982C7.01697 84.1224 6.76644 84.4019 6.46368 84.6158C6.9627 84.8277 7.39382 85.1727 7.70986 85.6132C7.97443 86.0398 8.10699 86.535 8.09086 87.0367C8.09581 87.5448 7.95435 88.0435 7.6834 88.4733C7.42816 88.8888 7.06149 89.2243 6.62508 89.4417C6.06531 89.6821 5.45831 89.7925 4.84974 89.7645H2.2489ZM4.02953 82.1128V84.0813H4.41847C4.76165 84.1113 5.10422 84.0174 5.38419 83.8167C5.4921 83.7245 5.57752 83.6089 5.63392 83.4787C5.69032 83.3485 5.71622 83.2071 5.70963 83.0653C5.71524 82.9343 5.69127 82.8037 5.63951 82.6833C5.58776 82.5628 5.50953 82.4555 5.41065 82.3695C5.14778 82.175 4.82395 82.0811 4.49784 82.1049L4.02953 82.1128ZM4.02953 85.6714V88.0527H4.47668C5.21221 88.0527 5.71227 87.9601 5.96892 87.7881C6.09596 87.6951 6.19782 87.5718 6.26527 87.4295C6.33271 87.2873 6.36363 87.1304 6.3552 86.9732C6.36226 86.7897 6.32479 86.6072 6.246 86.4413C6.16722 86.2755 6.04945 86.1311 5.90277 86.0207C5.60115 85.7878 5.10903 85.6714 4.3973 85.6714H4.02953Z" fill="#434343"/>
<path d="M14.544 80.1787C15.181 80.1714 15.8127 80.2952 16.3999 80.5423C16.987 80.7895 17.5171 81.1547 17.9571 81.6154C18.4203 82.0718 18.7857 82.6178 19.0308 83.2201C19.276 83.8224 19.3959 84.4683 19.3832 85.1185C19.3966 85.7614 19.2784 86.4003 19.0359 86.9958C18.7934 87.5914 18.4317 88.1311 17.973 88.5818C17.5313 89.0396 17.0001 89.4016 16.4124 89.6451C15.8248 89.8886 15.1933 90.0085 14.5572 89.9973C13.9046 90.0149 13.2556 89.8944 12.6528 89.6436C12.05 89.3928 11.507 89.0175 11.0595 88.5421C10.3799 87.8532 9.91898 86.9788 9.73445 86.0289C9.54991 85.0789 9.65001 84.0956 10.0222 83.2024C10.3944 82.3091 11.022 81.5456 11.8265 81.0077C12.6309 80.4698 13.5763 80.1814 14.544 80.1787V80.1787ZM14.5255 81.9223C14.1192 81.9131 13.7154 81.9883 13.3397 82.1431C12.964 82.2979 12.6245 82.5291 12.3427 82.8219C12.0486 83.1257 11.8188 83.4856 11.667 83.8802C11.5151 84.2748 11.4444 84.6959 11.459 85.1185C11.4394 85.586 11.53 86.0516 11.7235 86.4776C11.917 86.9037 12.2079 87.2782 12.5729 87.5711C13.1301 88.0334 13.8333 88.2828 14.5572 88.2749C14.9603 88.2804 15.3601 88.2021 15.7313 88.0449C16.1024 87.8878 16.4369 87.6553 16.7136 87.3621C17.2867 86.7498 17.6055 85.9425 17.6055 85.1039C17.6055 84.2653 17.2867 83.458 16.7136 82.8457C16.4336 82.5475 16.0942 82.3113 15.7173 82.1523C15.3405 81.9932 14.9345 81.9149 14.5255 81.9223V81.9223Z" fill="#434343"/>
<path d="M20.6849 80.4142H22.4338L23.7858 86.3832L25.4553 80.4142H26.9343L28.6277 86.3832L29.9506 80.4142H31.7048L29.5881 89.7645H27.8816L26.1591 83.7215L24.4949 89.7645H22.8016L20.6849 80.4142Z" fill="#434343"/>
<path d="M33.8849 80.4142H35.6655V88.0659H38.2531V89.7645H33.8849V80.4142Z" fill="#434343"/>
<path d="M50.6224 81.6869L49.2995 82.8484C48.8373 82.2045 48.3664 81.8826 47.8866 81.8826C47.6789 81.8745 47.4752 81.9411 47.3125 82.0705C47.2455 82.1194 47.1907 82.183 47.1522 82.2564C47.1137 82.3297 47.0925 82.411 47.0902 82.4938C47.0921 82.6556 47.148 82.812 47.249 82.9383C47.6551 83.3687 48.091 83.7701 48.5534 84.1395C49.2342 84.7075 49.6461 85.0656 49.789 85.2137C50.1042 85.5143 50.3639 85.8681 50.5562 86.2588C50.7098 86.6015 50.7874 86.9734 50.7838 87.3489C50.7938 87.7037 50.7281 88.0566 50.5913 88.3841C50.4544 88.7117 50.2495 89.0063 49.99 89.2486C49.4245 89.7621 48.6789 90.0313 47.9157 89.9974C47.3006 90.0125 46.6952 89.8429 46.1774 89.5105C45.6264 89.1168 45.1877 88.586 44.9048 87.9707L46.4023 87.0684C46.8521 87.8939 47.3707 88.3093 47.9554 88.3093C48.2359 88.3194 48.5102 88.2251 48.7253 88.0447C48.8201 87.9724 48.8974 87.8797 48.9515 87.7735C49.0055 87.6672 49.0349 87.5501 49.0375 87.4309C49.0296 87.1986 48.947 86.975 48.8021 86.7933C48.4906 86.4349 48.143 86.1095 47.7649 85.8223C46.7454 84.9915 46.0875 84.3503 45.7911 83.8988C45.5116 83.5033 45.3559 83.0336 45.344 82.5494C45.342 82.2342 45.4073 81.9223 45.5355 81.6344C45.6637 81.3465 45.8519 81.0892 46.0875 80.8799C46.5813 80.4159 47.2384 80.1658 47.9157 80.184C48.3765 80.1844 48.8303 80.296 49.2386 80.5095C49.7709 80.8099 50.2406 81.2096 50.6224 81.6869V81.6869Z" fill="#434343"/>
<path d="M52.3447 80.4142H57.5094V82.1737H55.8081V89.7698H54.0037V82.1737H52.3447V80.4142Z" fill="#434343"/>
<path d="M62.3644 80.4142H64.1821L67.7751 89.7645H65.923L65.1928 87.8384H61.3696L60.6102 89.7645H58.7582L62.3644 80.4142ZM63.2799 82.8933L62.0258 86.1027H64.5261L63.2799 82.8933Z" fill="#434343"/>
<path d="M69.9289 80.4142H71.6355L75.6359 86.5657V80.4142H77.4113V89.7645H75.6994L71.7043 83.6315V89.7645H69.9263L69.9289 80.4142Z" fill="#434343"/>
<path d="M80.3375 80.4142H82.4542C83.8124 80.4142 84.8222 80.5827 85.4836 80.9196C86.1781 81.2932 86.7455 81.8652 87.1135 82.5626C87.479 83.2741 87.6925 84.0539 87.7403 84.8524C87.7881 85.6509 87.6693 86.4507 87.3913 87.2007C87.1771 87.7692 86.8412 88.2839 86.407 88.7088C86.02 89.0861 85.5509 89.3687 85.0365 89.5343C84.547 89.6878 83.6951 89.7645 82.4859 89.7645H80.3455L80.3375 80.4142ZM82.1049 82.1313V88.0289H82.9304C83.7453 88.0289 84.3353 87.9354 84.7005 87.7484C85.0919 87.5368 85.4066 87.2072 85.6001 86.8065C85.8479 86.3009 85.9678 85.7421 85.9493 85.1793C85.9493 84.1845 85.6724 83.4146 85.1185 82.8695C84.6158 82.3774 83.8141 82.1313 82.7082 82.1313H82.1049Z" fill="#434343"/>
<path d="M10.5568 46.9367L15.695 62.5153L20.8755 46.9367H24.024L15.695 71.8074L12.0305 60.7611L8.32637 71.7968L0 46.9261H3.14587L8.32637 62.5153L10.443 56.0992L7.37388 46.9367H10.5568Z" fill="#434343"/>
<path d="M36.3349 46.8177C37.9941 46.8117 39.637 47.1439 41.1635 47.794C42.6545 48.4212 44.0082 49.3344 45.1481 50.4821C46.2832 51.6324 47.1947 52.9835 47.8363 54.4667C48.5029 55.9861 48.8436 57.6282 48.8364 59.2874C48.8449 60.9336 48.5258 62.5651 47.8976 64.0868C47.2694 65.6086 46.3446 66.99 45.1772 68.1508C44.0343 69.2828 42.6878 70.1886 41.2085 70.8205C39.6692 71.4649 38.017 71.7968 36.3482 71.7968C34.6793 71.7968 33.0272 71.4649 31.4878 70.8205C29.9979 70.1922 28.6412 69.2862 27.49 68.1508C26.3208 66.9911 25.3945 65.6099 24.7653 64.0881C24.1362 62.5662 23.8167 60.9342 23.8255 59.2874C23.8132 57.6176 24.1447 55.9632 24.7992 54.427C25.4302 52.9421 26.3441 51.5941 27.49 50.4583C28.6381 49.326 29.9901 48.4211 31.4746 47.7913C33.0107 47.1368 34.6652 46.8054 36.3349 46.8177V46.8177ZM36.3349 49.9662C35.0844 49.9563 33.8455 50.2068 32.6969 50.7017C31.5928 51.1766 30.5862 51.8521 29.7283 52.694C28.87 53.5422 28.1867 54.5508 27.7175 55.6626C27.2304 56.8127 26.9794 58.049 26.9794 59.298C26.9794 60.547 27.2304 61.7832 27.7175 62.9333C28.6773 65.1703 30.46 66.9529 32.6969 67.9127C33.8503 68.3999 35.0895 68.6509 36.3415 68.6509C37.5935 68.6509 38.8328 68.3999 39.9862 67.9127C42.2231 66.9529 44.0058 65.1703 44.9656 62.9333C45.4622 61.7824 45.7136 60.5408 45.7038 59.2874C45.7108 58.0471 45.4594 56.8189 44.9656 55.6811C44.0057 53.4378 42.2145 51.6532 39.9676 50.7017C38.8203 50.2089 37.5836 49.9585 36.3349 49.9662Z" fill="#434343"/>
<path d="M63.5445 46.8177C65.208 46.8106 66.8555 47.1428 68.3864 47.794C69.8765 48.4213 71.2293 49.3345 72.3683 50.4821C73.5034 51.6329 74.4157 52.9839 75.0591 54.4667C75.7239 55.9864 76.0628 57.6286 76.0539 59.2874C76.0605 60.9343 75.7394 62.5661 75.1094 64.0878C74.4794 65.6094 73.553 66.9906 72.3842 68.1509C71.2406 69.282 69.8942 70.1877 68.4155 70.8205C66.8761 71.4649 65.2239 71.7968 63.5551 71.7968C61.8863 71.7968 60.2341 71.4649 58.6947 70.8205C57.207 70.1912 55.8522 69.2853 54.7022 68.1509C53.5341 66.993 52.6069 65.6153 51.9742 64.0972C51.3414 62.579 51.0156 60.9506 51.0156 59.3059C51.0156 57.6612 51.3414 56.0328 51.9742 54.5147C52.6069 52.9965 53.5341 51.6188 54.7022 50.461C55.8498 49.3292 57.2008 48.4244 58.6841 47.794C60.2201 47.1385 61.8746 46.8062 63.5445 46.8177V46.8177ZM63.5445 49.9662C62.2913 49.9556 61.0496 50.2061 59.8986 50.7017C58.7952 51.1767 57.7896 51.8522 56.9326 52.694C56.0743 53.5423 55.3911 54.5509 54.9218 55.6626C54.4347 56.8127 54.1837 58.049 54.1837 59.298C54.1837 60.547 54.4347 61.7832 54.9218 62.9333C55.8846 65.1683 57.6663 66.95 59.9012 67.9127C61.055 68.3999 62.2947 68.6508 63.5472 68.6508C64.7996 68.6508 66.0393 68.3999 67.1931 67.9127C69.43 66.9529 71.2127 65.1703 72.1725 62.9333C72.67 61.7827 72.9223 60.541 72.9133 59.2874C72.9204 58.0471 72.669 56.8189 72.1751 55.6811C71.2153 53.4378 69.4241 51.6532 67.1772 50.7017C66.0298 50.2092 64.7931 49.9588 63.5445 49.9662Z" fill="#434343"/>
<path d="M89.9999 46.9367V49.9662H81.5915V61.6792H88.4045V64.7113H81.5915V71.683H78.4457V46.9367H89.9999Z" fill="#434343"/>
<path d="M29.1754 6.35524C29.9983 6.0642 29.4109 8.47189 29.9374 11.1547C30.3211 13.1153 31.7578 14.5149 32.5118 15.1235C33.5701 14.6287 37.0626 13.3508 42.7855 14.4805C42.7855 14.4805 51.3527 14.5202 54.0831 13.2635C54.7631 12.9513 57.6841 7.52998 57.6285 7.81573C57.6285 7.81573 58.5731 5.41333 59.425 3.63799C59.3404 3.43162 59.261 3.25699 59.1949 3.12999C58.6313 2.0505 60.695 1.33084 60.8538 1.21707C61.0125 1.1033 61.5417 0.973656 62.4095 0.862532C62.9122 0.799032 63.698 0.264578 64.0473 0.0396836C64.3515 -0.153461 64.5076 0.246057 64.5976 0.59795C64.5976 0.59795 64.5976 0.624408 64.5976 0.634992C65.3306 0.648095 66.0571 0.774838 66.7513 1.0107C69.585 1.97642 68.6325 2.27275 68.8494 2.79927C69.0664 3.32578 70.847 4.56138 72.0456 4.99794C73.2441 5.4345 73.6013 6.13035 72.9451 7.25217C72.289 8.374 71.273 9.82655 68.7753 9.22066C67.4974 8.9111 66.4259 9.60695 65.6004 10.4033C65.2548 10.7306 64.9355 11.0845 64.6452 11.4617C63.9944 12.3242 64.0155 16.9888 63.8515 18.7244C63.6451 20.8411 62.8276 23.0979 60.4463 24.614C60.0933 25.605 59.8537 26.6329 59.732 27.6779C59.4674 30.3369 59.7716 33.3029 60.2003 33.5383C60.6289 33.7738 62.3169 34.0992 62.2561 35.229C62.2111 35.9989 61.8221 36.2582 60.9199 36.3429C60.8062 37.3642 59.9807 37.4012 57.9778 37.4012C56.2977 37.4012 55.7765 30.5724 55.6204 29.0113C55.5754 28.5668 55.4748 27.6884 55.4299 26.6301C52.1226 27.3074 48.7307 26.5984 43.0501 24.4976C41.7902 24.1812 40.501 23.9959 39.2031 23.9446C38.621 25.7385 35.7635 28.6806 33.1468 29.7389C32.443 30.022 33.7871 34.9009 34.0808 34.9591C34.3745 35.0173 35.9831 35.1629 35.6894 36.245C35.5624 36.7107 34.7899 36.7742 33.975 36.7742C33.975 36.8138 33.9591 36.8562 33.9485 36.9012C33.7633 37.5944 32.1361 37.4303 31.0725 37.4303C30.2788 37.4303 30.0539 36.9012 29.8951 36.2979C29.5406 34.938 28.9135 32.4535 28.6383 30.9137C28.5903 30.6388 28.6137 30.3563 28.7064 30.0931C28.7991 29.8299 28.9579 29.595 29.1675 29.4109C29.8792 28.7838 30.8873 27.7202 30.7047 26.8841C30.4401 25.6168 28.9479 21.2512 28.9955 20.005C28.9347 18.78 29.5035 17.9995 30.7232 16.7559C30.3899 15.6685 30.0115 15.6447 28.1912 12.5226C26.0825 8.88464 28.3579 6.64893 29.1754 6.35524Z" fill="#434343"/>
</g>
<defs>
<clipPath id="clip0_57_429">
<rect width="90" height="89.9973" fill="white"/>
</clipPath>
</defs>
</svg>
